<svg width="auto" height="auto" viewBox="0 0 602 100" fill="none" xmlns="http://www.w3.org/2000/svg">
<rect x="13.3832" y="39.4604" width="76.868" height="25.6227" transform="rotate(-30 13.3832 39.4604)" fill="white"/>
<path d="M79.9774 0.831055L133.736 33.8203L133.736 61.455L67.1661 23.0209L79.9774 0.831055Z" fill="white"/>
<path d="M133.711 60.814L67.1415 99.248L54.3301 77.0581L133.711 33.8197L133.711 60.814Z" fill="#DFDFDF"/>
<path d="M67.1168 99.4438L13.3585 66.1688L13.3585 38.8199L67.1168 70.3325L67.1168 99.4438Z" fill="#F3F3F3"/>
<path d="M574.092 77.6499C574.092 71.0442 579.267 66.8209 585.62 66.8209C588.696 66.729 591.638 68.0406 593.563 70.362C593.648 70.4809 593.681 70.628 593.654 70.7705C593.626 70.9129 593.541 71.0388 593.417 71.12L590.829 72.8635C590.557 73.0318 590.202 73.0006 589.966 72.7877C588.794 71.6717 587.266 70.9699 585.631 70.7952C581.714 70.7952 578.539 73.8641 578.539 77.6499C578.539 81.4357 581.714 84.5046 585.631 84.5046C587.296 84.5009 588.907 83.9382 590.19 82.9128V80.9527C590.19 80.6537 589.94 80.4113 589.63 80.4113H585.048C584.739 80.4113 584.488 80.1689 584.488 79.8698V77.076C584.488 76.7769 584.739 76.5345 585.048 76.5345H594.19C594.499 76.5345 594.75 76.7769 594.75 77.076V84.0065C594.734 84.352 594.609 84.6844 594.392 84.9594C592.081 87.2432 588.901 88.508 585.597 88.4572C579.267 88.4464 574.092 84.2231 574.092 77.6499Z" fill="white"/>
<path d="M453.033 67.2798C453.181 67.0212 453.033 66.8164 452.768 66.8164H434.73C434.433 66.8164 434.316 67.0319 434.465 67.2798L436.141 70.2218C436.324 70.4907 436.617 70.6612 436.937 70.6852H441.065C441.358 70.6852 441.595 70.9264 441.595 71.224V86.9361C441.595 87.2337 441.833 87.4749 442.126 87.4749H445.425C445.718 87.4749 445.956 87.2337 445.956 86.9361V71.224C445.956 70.9264 446.193 70.6852 446.486 70.6852H450.614C450.934 70.6612 451.227 70.4907 451.409 70.2218L453.033 67.2798Z" fill="white"/>
<path d="M202.235 87.4749C201.937 87.4749 201.695 87.2361 201.695 86.9414V73.0695C201.695 72.7707 201.609 72.76 201.501 73.0695L196.009 86.9414C195.88 87.2319 195.596 87.4257 195.276 87.4429H194.412C194.092 87.4257 193.808 87.2319 193.679 86.9414L188.187 73.0695C188.079 72.792 187.992 72.8134 187.992 73.0695V86.9414C187.992 87.2361 187.751 87.4749 187.453 87.4749H184.087C183.789 87.4749 183.547 87.2361 183.547 86.9414V67.3499C183.547 67.0553 183.789 66.8164 184.087 66.8164H189.233C189.554 66.8336 189.837 67.0275 189.967 67.3179L194.65 79.2265C194.758 79.5039 194.93 79.5039 195.038 79.2265L199.721 67.3179C199.85 67.0275 200.134 66.8336 200.455 66.8164H205.634C205.932 66.8164 206.173 67.0553 206.173 67.3499V86.9307C206.173 87.2254 205.932 87.4643 205.634 87.4643L202.235 87.4749Z" fill="white"/>
<path fill-rule="evenodd" clip-rule="evenodd" d="M253.401 86.8909C253.525 87.1771 253.807 87.3691 254.126 87.385H258.118C258.247 87.4002 258.373 87.3444 258.446 87.2404C258.519 87.1364 258.526 87.0015 258.464 86.8909L250.783 67.5356C250.653 67.2494 250.369 67.0585 250.048 67.0415H245.547C245.226 67.0585 244.942 67.2494 244.812 67.5356L237.131 86.8909C237.069 87.0015 237.076 87.1364 237.149 87.2404C237.222 87.3444 237.349 87.4002 237.477 87.385H241.447C241.766 87.3691 242.048 87.1771 242.172 86.8909L243.113 84.4307C243.237 84.1446 243.519 83.9526 243.838 83.9366H251.735C252.054 83.9526 252.336 84.1446 252.46 84.4307L253.401 86.8909ZM247.592 71.8671C247.689 71.5937 247.862 71.5937 247.96 71.8671L250.816 79.626C250.871 79.7389 250.859 79.8719 250.785 79.9742C250.712 80.0765 250.587 80.1322 250.459 80.1201H245.05C244.922 80.1322 244.797 80.0765 244.723 79.9742C244.649 79.8719 244.638 79.7389 244.693 79.626L247.592 71.8671Z" fill="white"/>
<path fill-rule="evenodd" clip-rule="evenodd" d="M301.663 86.9251C301.83 87.1958 302.114 87.3681 302.428 87.3875L306.312 87.377C306.559 87.377 306.704 87.1773 306.559 86.9251L302.562 80.0835C302.486 79.9923 302.471 79.8631 302.526 79.7569C302.58 79.6507 302.693 79.5887 302.81 79.6001C302.81 79.6001 306.694 79.3269 306.694 73.5993C306.694 67.0415 300.496 67.0415 300.496 67.0415H291.148C290.862 67.0415 290.631 67.2768 290.631 67.567V86.862C290.631 87.1522 290.862 87.3875 291.148 87.3875H294.37C294.656 87.3875 294.887 87.1522 294.887 86.862V80.6826C294.887 80.3924 295.118 80.1571 295.403 80.1571H297.469C297.783 80.1765 298.067 80.3487 298.234 80.6195L301.663 86.9251ZM302.335 73.5649C302.371 72.8781 302.133 72.2054 301.674 71.6995C301.212 71.1903 300.567 70.8936 299.886 70.8777H295.393C295.108 70.8777 294.877 71.1129 294.877 71.4032V75.8276C294.877 76.1178 295.108 76.353 295.393 76.353H299.886C300.587 76.345 301.251 76.0373 301.717 75.5053C302.182 74.9751 302.406 74.2711 302.335 73.5649Z" fill="white"/>
<path d="M352.186 87.4749C351.87 87.4561 351.574 87.3017 351.37 87.0481L346.003 79.5786C345.93 79.4714 345.812 79.4076 345.686 79.4076C345.561 79.4076 345.443 79.4714 345.37 79.5786L344.482 80.7097C344.285 80.9852 344.172 81.3159 344.156 81.6594V86.9414C344.156 87.2361 343.927 87.4749 343.645 87.4749H340.472C340.19 87.4749 339.962 87.2361 339.962 86.9414V67.3499C339.962 67.0553 340.19 66.8164 340.472 66.8164H343.656C343.937 66.8164 344.166 67.0553 344.166 67.3499V75.481C344.166 75.7798 344.309 75.8225 344.482 75.5984L350.829 67.2432C351.041 66.9959 351.339 66.8463 351.656 66.8271H355.819C356.095 66.8271 356.176 67.0085 356.003 67.2326L348.86 76.0999C348.681 76.342 348.681 76.6796 348.86 76.9216L356.595 87.0481C356.768 87.2722 356.686 87.4643 356.401 87.4643L352.186 87.4749Z" fill="white"/>
<path d="M485.049 87.4749C484.785 87.4749 484.571 87.2361 484.571 86.9414V67.3499C484.571 67.0553 484.785 66.8164 485.049 66.8164H488.029C488.292 66.8164 488.506 67.0553 488.506 67.3499V86.9307C488.506 87.2254 488.292 87.4643 488.029 87.4643L485.049 87.4749Z" fill="white"/>
<path d="M538.661 87.4643C538.308 87.448 537.978 87.2932 537.753 87.0377L527.955 74.442C527.774 74.2074 527.615 74.2501 527.615 74.5487V86.9417C527.615 87.2362 527.36 87.4749 527.047 87.4749H523.505C523.191 87.4749 522.937 87.2362 522.937 86.9417V67.3497C522.937 67.0552 523.191 66.8164 523.505 66.8164H527.183C527.536 66.8339 527.865 66.9885 528.091 67.243L537.594 79.348C537.776 79.5827 537.934 79.54 537.934 79.2414V67.3497C537.934 67.0552 538.189 66.8164 538.502 66.8164H542.044C542.358 66.8164 542.612 67.0552 542.612 67.3497V86.9203C542.612 87.2149 542.358 87.4536 542.044 87.4536L538.661 87.4643Z" fill="white"/>
<path d="M403.282 84.0692C403.424 83.8023 403.282 83.5888 403.019 83.5888H393.856C393.566 83.5888 393.33 83.3402 393.33 83.0336V79.4357C393.33 79.1291 393.566 78.8806 393.856 78.8806H396.954C397.275 78.8615 397.568 78.6833 397.744 78.4001L399.344 75.4855C399.485 75.2186 399.344 75.0051 399.08 75.0051H393.866C393.576 75.0051 393.34 74.7565 393.34 74.4499V71.247C393.34 70.9404 393.576 70.6919 393.866 70.6919H401.46C401.78 70.6729 402.073 70.4946 402.249 70.2115L403.849 67.2968C403.991 67.0299 403.849 66.8164 403.586 66.8164H389.675C389.384 66.8164 389.149 67.065 389.149 67.3716V86.9198C389.149 87.067 389.204 87.2082 389.303 87.3123C389.402 87.4164 389.536 87.4749 389.675 87.4749H400.893C401.213 87.4559 401.506 87.2776 401.682 86.9945L403.282 84.0692Z" fill="white"/>
<path fill-rule="evenodd" clip-rule="evenodd" d="M219.547 48.8307C219.547 49.3748 219.991 49.8164 220.524 49.8164H227.628V41.8179C227.624 41.783 227.622 41.7475 227.622 41.7117V12.8021C227.622 12.26 227.184 11.8164 226.645 11.8164H220.524C219.991 11.8164 219.547 12.26 219.547 12.8021V48.8307ZM229.628 42.6974V49.8164H242.57C243.108 49.8164 243.547 49.3748 243.547 48.8307V43.6832C243.547 43.141 243.108 42.6974 242.57 42.6974H229.628Z" fill="white"/>
<path fill-rule="evenodd" clip-rule="evenodd" d="M268.52 11.8164C257.561 11.8164 249.547 19.7468 249.547 30.8164C249.547 41.5557 257.09 49.3405 267.547 49.7954V42.8397C261.4 42.3583 257.507 37.3092 257.507 30.8164C257.507 23.9323 261.814 18.7555 268.52 18.7555C275.226 18.7555 279.587 23.9323 279.587 30.8164C279.587 37.2901 275.668 42.3286 269.547 42.8353V49.7931C280.028 49.3158 287.547 41.5388 287.547 30.8164C287.547 19.7468 279.533 11.8164 268.52 11.8164Z" fill="white"/>
<path fill-rule="evenodd" clip-rule="evenodd" d="M191.5 35.2959V41.6874C191.5 44.4766 191.516 45.5883 191.529 46.5303C191.539 47.2228 191.547 47.8235 191.547 48.9313C191.486 49.0278 191.433 49.1177 191.385 49.2003C191.174 49.564 191.044 49.7875 190.547 49.8164H184.547C183.995 49.8164 183.547 49.3609 183.547 48.799V20.9487H191.46V25.8973C191.46 25.9963 191.474 26.092 191.5 26.1825L191.5 35.2959H191.5ZM193.5 26.9147H203.413C203.913 26.9147 204.193 27.3115 203.913 27.7998L200.912 33.1615C200.579 33.6826 200.022 34.0112 199.412 34.0467H193.5V26.9147ZM192.46 18.9484C192.451 18.9484 192.443 18.9485 192.434 18.9487H183.547V12.8338C183.547 12.2719 183.995 11.8164 184.547 11.8164H211.936C212.436 11.8164 212.716 12.2132 212.436 12.7015L209.435 18.0633C209.102 18.5843 208.545 18.913 207.935 18.9484H192.46Z" fill="white"/>
<path fill-rule="evenodd" clip-rule="evenodd" d="M313.52 11.8164C302.561 11.8164 294.547 19.7468 294.547 30.8164C294.547 41.5557 302.09 49.3405 312.547 49.7954V42.8397C306.4 42.3583 302.507 37.3092 302.507 30.8164C302.507 23.9323 306.814 18.7555 313.52 18.7555C320.226 18.7555 324.587 23.9323 324.587 30.8164C324.587 37.2901 320.668 42.3286 314.547 42.8353V49.7931C325.028 49.3158 332.547 41.5388 332.547 30.8164C332.547 19.7468 324.533 11.8164 313.52 11.8164Z" fill="white"/>
<path fill-rule="evenodd" clip-rule="evenodd" d="M437.934 11.8164C438.478 11.8164 438.706 12.2131 438.429 12.7013L435.373 18.0616C435.044 18.5825 434.493 18.9111 433.889 18.9465H426.452C426.436 18.9465 426.419 18.9469 426.403 18.9478L416.612 18.9478C416.596 18.9469 416.579 18.9465 416.563 18.9465H409.116C408.513 18.9111 407.962 18.5825 407.632 18.0616L404.665 12.7013C404.388 12.2131 404.616 11.8164 405.16 11.8164H437.934ZM417.552 20.9478V48.7993C417.552 49.361 417.994 49.8164 418.541 49.8164H424.474C425.021 49.8164 425.463 49.361 425.463 48.7993V20.9478L417.552 20.9478Z" fill="white"/>
<path fill-rule="evenodd" clip-rule="evenodd" d="M545.7 18.9865C553.504 18.9865 557.635 24.2109 557.635 30.9247C557.635 37.4677 553.216 42.9205 545.643 42.9205H540.699V50.0914H544.707C545.253 50.0914 546.147 50.0874 546.693 50.0835C546.693 50.0835 565.957 49.9028 565.957 30.9251C565.957 11.8164 546.636 11.8164 546.636 11.8164H544.65H531.54C530.998 11.8164 530.547 12.2632 530.547 12.8093V49.0985C530.547 49.6466 530.998 50.0914 531.54 50.0914H538.699V41.9923C538.697 41.9709 538.697 41.9494 538.697 41.9277V19.9793C538.697 19.4372 539.145 18.9865 539.689 18.9865H545.7Z" fill="white"/>
<path fill-rule="evenodd" clip-rule="evenodd" d="M599.866 42.6681C600.365 42.6681 600.634 43.0609 600.365 43.5518L597.33 48.9327C596.996 49.4535 596.44 49.7814 595.831 49.8164H583.514V42.6681H599.866ZM581.514 41.9061L581.514 49.8164H574.546C574.281 49.8164 574.027 49.7088 573.84 49.5173C573.652 49.3258 573.547 49.0661 573.547 48.7952V12.8376C573.547 12.2736 573.994 11.8164 574.546 11.8164H600.941C601.441 11.8164 601.71 12.2092 601.441 12.7001L598.406 18.0614C598.071 18.5822 597.515 18.9101 596.907 18.9451H582.499C581.948 18.9451 581.5 19.4023 581.5 19.9663V25.8577C581.5 25.9145 581.505 25.9703 581.514 26.0245L581.514 34.7696C581.492 34.8524 581.481 34.9392 581.481 35.0288V41.6469C581.481 41.7365 581.492 41.8233 581.514 41.9061ZM583.514 34.0076H588.358C588.967 33.9726 589.523 33.6447 589.857 33.1239L592.892 27.7627C593.161 27.2717 592.892 26.8789 592.393 26.8789H583.514V34.0076Z" fill="white"/>
<path fill-rule="evenodd" clip-rule="evenodd" d="M360.152 48.9528C360.462 49.4585 360.994 49.7802 361.579 49.8164L368.833 49.7968C369.296 49.7968 369.566 49.4238 369.296 48.9528L362.209 36.8234L362.206 36.8251L361.821 36.1634C361.788 36.122 361.762 36.0767 361.743 36.0291L357.715 29.1106C357.427 29.1707 357.132 29.2032 356.833 29.2066H349.502V36.3123H352.319C352.904 36.3485 353.436 36.6702 353.746 37.1759L360.152 48.9528ZM359.545 28.2801C359.801 28.0881 360.038 27.8685 360.253 27.6233C361.12 26.6332 361.538 25.3183 361.407 23.9993C361.473 22.7164 361.028 21.4602 360.172 20.5153C359.31 19.5642 358.105 19.0102 356.833 18.9804H348.441C347.908 18.9804 347.476 19.4198 347.476 19.9618V28.2252C347.476 28.2498 347.477 28.2742 347.479 28.2983L347.499 37.2091C347.497 37.237 347.496 37.2652 347.496 37.2937V48.835C347.496 49.377 347.064 49.8164 346.531 49.8164H340.512C339.979 49.8164 339.547 49.377 339.547 48.835V12.7978C339.547 12.2558 339.979 11.8164 340.512 11.8164H357.972C357.972 11.8164 369.547 11.8164 369.547 24.0643C369.547 32.037 365.518 34.3512 363.465 35.0128L359.545 28.2801Z" fill="white"/>
<path fill-rule="evenodd" clip-rule="evenodd" d="M466.152 48.9528C466.462 49.4585 466.994 49.7802 467.579 49.8164L474.833 49.7968C475.296 49.7968 475.566 49.4238 475.296 48.9528L468.209 36.8234L468.206 36.8251L467.821 36.1634C467.788 36.122 467.762 36.0767 467.743 36.0291L463.715 29.1106C463.427 29.1707 463.132 29.2032 462.833 29.2066H455.502V36.3123H458.319C458.904 36.3485 459.436 36.6702 459.746 37.1759L466.152 48.9528ZM465.545 28.2801C465.801 28.0881 466.038 27.8685 466.253 27.6233C467.12 26.6332 467.538 25.3183 467.407 23.9993C467.473 22.7164 467.028 21.4602 466.172 20.5153C465.31 19.5642 464.105 19.0102 462.833 18.9804H454.441C453.908 18.9804 453.476 19.4198 453.476 19.9618V28.2252C453.476 28.2498 453.477 28.2742 453.479 28.2983L453.499 37.2091C453.497 37.237 453.496 37.2652 453.496 37.2937V48.835C453.496 49.377 453.064 49.8164 452.531 49.8164H446.512C445.979 49.8164 445.547 49.377 445.547 48.835V12.7978C445.547 12.2558 445.979 11.8164 446.512 11.8164H463.972C463.972 11.8164 475.547 11.8164 475.547 24.0643C475.547 32.037 471.518 34.3512 469.465 35.0128L465.545 28.2801Z" fill="white"/>
<path fill-rule="evenodd" clip-rule="evenodd" d="M514.797 49.8123C514.207 49.7828 513.686 49.4114 513.454 48.8558L512.108 45.1418L512.109 45.1415L509.035 35.4847C509.026 35.4187 509.007 35.3536 508.978 35.2916L508.934 35.1661L508.893 35.0386L508.889 35.0399L503.855 20.8524C503.666 20.3233 503.368 20.3233 503.179 20.8524L498.066 35.2916C497.965 35.5102 497.986 35.7676 498.122 35.9656C498.258 36.1636 498.488 36.2715 498.723 36.2482H507.179L509.446 43.3711H496.545C495.955 43.4006 495.433 43.7721 495.202 44.3276L493.56 48.8558C493.329 49.4114 492.807 49.7828 492.218 49.8123H485.255C485.021 49.8392 484.792 49.7323 484.659 49.5343C484.526 49.3364 484.51 49.0794 484.618 48.866L498.216 12.7627C498.456 12.2111 498.979 11.845 499.568 11.8164H507.526C508.115 11.845 508.639 12.2111 508.879 12.7627L522.476 48.866C522.584 49.0794 522.568 49.3364 522.435 49.5343C522.302 49.7323 522.073 49.8392 521.839 49.8123H514.797Z" fill="white"/>
</svg>
