<svg width="auto" height="auto" viewBox="0 0 602 100" fill="none" xmlns="http://www.w3.org/2000/svg">
<rect x="13.0255" y="39.4253" width="76.868" height="25.6227" transform="rotate(-30 13.0255 39.4253)" fill="white"/>
<path d="M79.6198 0.795898L133.378 33.7851L133.378 61.4198L66.8084 22.9858L79.6198 0.795898Z" fill="white"/>
<path d="M133.353 60.7788L66.7838 99.2129L53.9725 77.023L133.353 33.7846L133.353 60.7788Z" fill="white"/>
<path d="M66.7592 99.4087L13.0008 66.1336L13.0008 38.7848L66.7592 70.2973L66.7592 99.4087Z" fill="white"/>
<path d="M573.734 77.6147C573.734 71.0091 578.91 66.7858 585.262 66.7858C588.338 66.6939 591.28 68.0054 593.205 70.3268C593.291 70.4457 593.323 70.5928 593.296 70.7353C593.269 70.8778 593.183 71.0037 593.059 71.0849L590.471 72.8283C590.2 72.9966 589.844 72.9654 589.609 72.7525C588.436 71.6366 586.909 70.9347 585.273 70.76C581.357 70.76 578.182 73.829 578.182 77.6147C578.182 81.4005 581.357 84.4695 585.273 84.4695C586.938 84.4658 588.55 83.9031 589.833 82.8776V80.9176C589.833 80.6185 589.582 80.3761 589.273 80.3761H584.691C584.381 80.3761 584.13 80.1337 584.13 79.8347V77.0408C584.13 76.7418 584.381 76.4994 584.691 76.4994H593.832C594.142 76.4994 594.392 76.7418 594.392 77.0408V83.9713C594.376 84.3168 594.251 84.6493 594.034 84.9243C591.724 87.208 588.543 88.4729 585.239 88.422C578.91 88.4112 573.734 84.1879 573.734 77.6147Z" fill="white"/>
<path d="M452.675 67.2446C452.824 66.986 452.675 66.7812 452.41 66.7812H434.373C434.076 66.7812 433.959 66.9968 434.107 67.2446L435.784 70.1866C435.966 70.4556 436.259 70.626 436.58 70.65H440.707C441 70.65 441.237 70.8912 441.237 71.1888V86.901C441.237 87.1985 441.475 87.4398 441.768 87.4398H445.068C445.361 87.4398 445.598 87.1985 445.598 86.901V71.1888C445.598 70.8912 445.836 70.65 446.129 70.65H450.256C450.577 70.626 450.869 70.4556 451.052 70.1866L452.675 67.2446Z" fill="white"/>
<path d="M201.877 87.4398C201.579 87.4398 201.338 87.2009 201.338 86.9062V73.0343C201.338 72.7355 201.251 72.7248 201.144 73.0343L195.652 86.9062C195.522 87.1967 195.238 87.3906 194.918 87.4078H194.055C193.734 87.3906 193.451 87.1967 193.321 86.9062L187.829 73.0343C187.721 72.7569 187.635 72.7782 187.635 73.0343V86.9062C187.635 87.2009 187.393 87.4398 187.095 87.4398H183.729C183.431 87.4398 183.189 87.2009 183.189 86.9062V67.3148C183.189 67.0201 183.431 66.7813 183.729 66.7813H188.876C189.196 66.7985 189.48 66.9923 189.609 67.2828L194.292 79.1913C194.4 79.4687 194.573 79.4687 194.68 79.1913L199.363 67.2828C199.493 66.9923 199.776 66.7985 200.097 66.7812H205.276C205.574 66.7813 205.815 67.0201 205.815 67.3148V86.8956C205.815 87.1902 205.574 87.4291 205.276 87.4291L201.877 87.4398Z" fill="white"/>
<path fill-rule="evenodd" clip-rule="evenodd" d="M253.044 86.8557C253.168 87.1419 253.449 87.3339 253.768 87.3499H257.76C257.889 87.365 258.015 87.3092 258.088 87.2052C258.161 87.1012 258.168 86.9664 258.107 86.8557L250.426 67.5005C250.296 67.2143 250.011 67.0233 249.69 67.0063H245.19C244.868 67.0233 244.584 67.2143 244.454 67.5005L236.773 86.8557C236.712 86.9664 236.719 87.1012 236.791 87.2052C236.864 87.3092 236.991 87.365 237.119 87.3499H241.09C241.409 87.3339 241.69 87.1419 241.814 86.8557L242.756 84.3956C242.88 84.1094 243.161 83.9174 243.48 83.9015H251.378C251.697 83.9174 251.978 84.1094 252.102 84.3956L253.044 86.8557ZM247.234 71.8319C247.332 71.5586 247.505 71.5586 247.602 71.8319L250.458 79.5909C250.513 79.7038 250.502 79.8368 250.428 79.939C250.354 80.0413 250.229 80.0971 250.101 80.085H244.692C244.564 80.0971 244.439 80.0413 244.365 79.939C244.291 79.8368 244.28 79.7038 244.335 79.5909L247.234 71.8319Z" fill="white"/>
<path fill-rule="evenodd" clip-rule="evenodd" d="M301.306 86.8899C301.472 87.1607 301.757 87.3329 302.07 87.3523L305.954 87.3418C306.202 87.3418 306.346 87.1421 306.202 86.8899L302.204 80.0484C302.128 79.9571 302.114 79.8279 302.168 79.7218C302.223 79.6156 302.335 79.5536 302.452 79.5649C302.452 79.5649 306.336 79.2917 306.336 73.5641C306.336 67.0063 300.138 67.0063 300.138 67.0063H290.79C290.505 67.0063 290.273 67.2416 290.273 67.5318V86.8269C290.273 87.1171 290.505 87.3523 290.79 87.3523H294.013C294.298 87.3523 294.529 87.1171 294.529 86.8269V80.6474C294.529 80.3572 294.76 80.1219 295.046 80.1219H297.112C297.425 80.1413 297.71 80.3136 297.876 80.5843L301.306 86.8899ZM301.978 73.5297C302.013 72.8429 301.775 72.1703 301.316 71.6644C300.855 71.1551 300.21 70.8585 299.529 70.8425H295.035C294.75 70.8425 294.519 71.0778 294.519 71.368V75.7924C294.519 76.0826 294.75 76.3179 295.035 76.3179H299.529C300.229 76.3099 300.894 76.0022 301.36 75.4702C301.824 74.94 302.048 74.236 301.978 73.5297Z" fill="white"/>
<path d="M351.829 87.4398C351.512 87.421 351.217 87.2666 351.012 87.0129L345.645 79.5434C345.572 79.4362 345.454 79.3725 345.329 79.3725C345.203 79.3725 345.085 79.4362 345.012 79.5434L344.125 80.6745C343.928 80.9501 343.814 81.2807 343.798 81.6242V86.9062C343.798 87.2009 343.57 87.4398 343.288 87.4398H340.114C339.832 87.4398 339.604 87.2009 339.604 86.9062V67.3148C339.604 67.0201 339.832 66.7812 340.114 66.7812H343.298C343.58 66.7812 343.808 67.0201 343.808 67.3148V75.4459C343.808 75.7447 343.951 75.7873 344.125 75.5633L350.472 67.2081C350.684 66.9607 350.981 66.8112 351.298 66.7919H355.461C355.737 66.7919 355.819 66.9733 355.645 67.1974L348.502 76.0648C348.323 76.3068 348.323 76.6444 348.502 76.8864L356.237 87.0129C356.41 87.237 356.329 87.4291 356.043 87.4291L351.829 87.4398Z" fill="white"/>
<path d="M484.691 87.4398C484.427 87.4398 484.214 87.2009 484.214 86.9062V67.3148C484.214 67.0201 484.427 66.7812 484.691 66.7812H487.671C487.935 66.7812 488.149 67.0201 488.149 67.3148V86.8956C488.149 87.1902 487.935 87.4291 487.671 87.4291L484.691 87.4398Z" fill="white"/>
<path d="M538.303 87.4291C537.95 87.4129 537.621 87.2581 537.395 87.0025L527.598 74.4069C527.416 74.1722 527.257 74.2149 527.257 74.5135V86.9065C527.257 87.201 527.003 87.4398 526.689 87.4398H523.147C522.834 87.4398 522.579 87.201 522.579 86.9065V67.3145C522.579 67.02 522.834 66.7812 523.147 66.7812H526.825C527.178 66.7988 527.507 66.9533 527.734 67.2079L537.236 79.3129C537.418 79.5475 537.577 79.5049 537.577 79.2062V67.3145C537.577 67.02 537.831 66.7812 538.144 66.7812H541.687C542 66.7812 542.254 67.02 542.254 67.3145V86.8852C542.254 87.1797 542 87.4184 541.687 87.4184L538.303 87.4291Z" fill="white"/>
<path d="M402.924 84.0341C403.066 83.7672 402.924 83.5536 402.661 83.5536H393.499C393.208 83.5536 392.972 83.3051 392.972 82.9985V79.4006C392.972 79.094 393.208 78.8454 393.499 78.8454H396.597C396.917 78.8264 397.21 78.6481 397.386 78.365L398.986 75.4504C399.128 75.1835 398.986 74.9699 398.723 74.9699H393.509C393.218 74.9699 392.982 74.7214 392.982 74.4148V71.2119C392.982 70.9053 393.218 70.6567 393.509 70.6567H401.102C401.422 70.6377 401.715 70.4594 401.892 70.1763L403.491 67.2617C403.633 66.9948 403.491 66.7812 403.228 66.7812H389.317C389.027 66.7812 388.791 67.0298 388.791 67.3364V86.8846C388.791 87.0319 388.846 87.1731 388.945 87.2772C389.044 87.3813 389.178 87.4398 389.317 87.4398H400.535C400.855 87.4207 401.148 87.2425 401.325 86.9593L402.924 84.0341Z" fill="white"/>
<path fill-rule="evenodd" clip-rule="evenodd" d="M219.189 48.7955C219.189 49.3396 219.633 49.7812 220.166 49.7812H227.27V41.7828C227.266 41.7478 227.264 41.7124 227.264 41.6766V12.767C227.264 12.2248 226.827 11.7812 226.287 11.7812H220.166C219.633 11.7812 219.189 12.2248 219.189 12.767V48.7955ZM229.27 42.6623V49.7812H242.213C242.75 49.7812 243.189 49.3396 243.189 48.7955V43.648C243.189 43.1059 242.75 42.6623 242.213 42.6623H229.27Z" fill="white"/>
<path fill-rule="evenodd" clip-rule="evenodd" d="M268.162 11.7812C257.204 11.7812 249.189 19.7117 249.189 30.7812C249.189 41.5206 256.733 49.3053 267.189 49.7602V42.8045C261.043 42.3231 257.149 37.274 257.149 30.7812C257.149 23.8972 261.456 18.7204 268.162 18.7204C274.868 18.7204 279.23 23.8972 279.23 30.7812C279.23 37.255 275.31 42.2934 269.189 42.8002V49.758C279.67 49.2807 287.189 41.5036 287.189 30.7812C287.189 19.7117 279.175 11.7812 268.162 11.7812Z" fill="white"/>
<path fill-rule="evenodd" clip-rule="evenodd" d="M191.142 35.2607V41.6522C191.142 44.4414 191.158 45.5532 191.171 46.4952C191.181 47.1876 191.19 47.7883 191.19 48.8961C191.128 48.9926 191.076 49.0825 191.028 49.1652C190.816 49.5288 190.687 49.7524 190.189 49.7812H184.19C183.637 49.7812 183.189 49.3257 183.189 48.7638V20.9136H191.102V25.8621C191.102 25.9611 191.116 26.0569 191.142 26.1474L191.142 35.2607H191.142ZM193.142 26.8795H203.055C203.556 26.8795 203.836 27.2763 203.556 27.7647L200.555 33.1264C200.221 33.6474 199.664 33.9761 199.054 34.0115H193.142V26.8795ZM192.102 18.9132C192.094 18.9132 192.085 18.9134 192.077 18.9136H183.189V12.7987C183.189 12.2368 183.637 11.7812 184.19 11.7812H211.578C212.078 11.7812 212.358 12.178 212.078 12.6664L209.077 18.0281C208.744 18.5491 208.187 18.8778 207.577 18.9132H192.102Z" fill="white"/>
<path fill-rule="evenodd" clip-rule="evenodd" d="M313.162 11.7812C302.204 11.7812 294.189 19.7117 294.189 30.7812C294.189 41.5206 301.733 49.3053 312.189 49.7602V42.8045C306.043 42.3231 302.149 37.274 302.149 30.7812C302.149 23.8972 306.456 18.7204 313.162 18.7204C319.868 18.7204 324.23 23.8972 324.23 30.7812C324.23 37.255 320.31 42.2934 314.189 42.8002V49.758C324.67 49.2807 332.189 41.5036 332.189 30.7812C332.189 19.7117 324.175 11.7812 313.162 11.7812Z" fill="white"/>
<path fill-rule="evenodd" clip-rule="evenodd" d="M437.577 11.7812C438.121 11.7812 438.348 12.1779 438.071 12.6662L435.015 18.0264C434.686 18.5473 434.135 18.8759 433.532 18.9113H426.095C426.078 18.9113 426.062 18.9118 426.045 18.9126L416.255 18.9126C416.238 18.9118 416.222 18.9113 416.205 18.9113H408.758C408.155 18.8759 407.604 18.5473 407.275 18.0264L404.308 12.6662C404.031 12.1779 404.258 11.7812 404.802 11.7812H437.577ZM417.194 20.9126V48.7641C417.194 49.3259 417.637 49.7812 418.183 49.7812H424.117C424.663 49.7812 425.106 49.3259 425.106 48.7641V20.9126L417.194 20.9126Z" fill="white"/>
<path fill-rule="evenodd" clip-rule="evenodd" d="M545.343 18.9513C553.147 18.9513 557.277 24.1758 557.277 30.8895C557.277 37.4325 552.859 42.8854 545.285 42.8854H540.341V50.0563H544.35C544.896 50.0563 545.789 50.0523 546.335 50.0483C546.335 50.0483 565.599 49.8676 565.599 30.89C565.599 11.7812 546.278 11.7812 546.278 11.7812H544.292H531.182C530.64 11.7812 530.189 12.228 530.189 12.7741V49.0634C530.189 49.6114 530.64 50.0563 531.182 50.0563H538.341V41.9572C538.34 41.9358 538.339 41.9142 538.339 41.8925V19.9442C538.339 19.4021 538.788 18.9513 539.332 18.9513H545.343Z" fill="white"/>
<path fill-rule="evenodd" clip-rule="evenodd" d="M599.508 42.6329C600.007 42.6329 600.276 43.0257 600.007 43.5167L596.972 48.8975C596.638 49.4183 596.082 49.7462 595.474 49.7812H583.156V42.6329H599.508ZM581.156 41.871L581.156 49.7812H574.188C573.923 49.7812 573.669 49.6737 573.482 49.4822C573.295 49.2906 573.189 49.0309 573.189 48.7601V12.8024C573.189 12.2385 573.637 11.7812 574.188 11.7812H600.584C601.083 11.7812 601.352 12.174 601.083 12.665L598.048 18.0262C597.714 18.547 597.158 18.8749 596.549 18.9099H582.142C581.59 18.9099 581.143 19.3671 581.143 19.9311V25.8226C581.143 25.8794 581.147 25.9351 581.156 25.9894L581.156 34.7344C581.135 34.8172 581.123 34.9041 581.123 34.9937V41.6117C581.123 41.7013 581.135 41.7882 581.156 41.871ZM583.156 33.9725H588.001C588.609 33.9375 589.165 33.6096 589.499 33.0887L592.534 27.7275C592.803 27.2365 592.534 26.8438 592.035 26.8438H583.156V33.9725Z" fill="white"/>
<path fill-rule="evenodd" clip-rule="evenodd" d="M359.794 48.9176C360.105 49.4233 360.636 49.745 361.222 49.7812L368.476 49.7616C368.939 49.7616 369.209 49.3887 368.939 48.9176L361.851 36.7882L361.848 36.79L361.463 36.1283C361.43 36.0869 361.404 36.0416 361.385 35.9939L357.357 29.0755C357.069 29.1355 356.774 29.1681 356.476 29.1715H349.144V36.2771H351.961C352.546 36.3133 353.078 36.635 353.389 37.1408L359.794 48.9176ZM359.188 28.245C359.443 28.053 359.68 27.8333 359.895 27.5882C360.762 26.598 361.181 25.2831 361.049 23.9641C361.116 22.6813 360.67 21.425 359.814 20.4801C358.952 19.529 357.747 18.975 356.476 18.9452H348.083C347.551 18.9452 347.119 19.3846 347.119 19.9266V28.1901C347.119 28.2147 347.12 28.239 347.121 28.2632L347.142 37.174C347.139 37.2018 347.138 37.23 347.138 37.2585V48.7998C347.138 49.3419 346.706 49.7812 346.173 49.7812H340.154C339.621 49.7812 339.189 49.3419 339.189 48.7998V12.7627C339.189 12.2206 339.621 11.7812 340.154 11.7812H357.614C357.614 11.7812 369.189 11.7812 369.189 24.0292C369.189 32.0019 365.16 34.316 363.107 34.9776L359.188 28.245Z" fill="white"/>
<path fill-rule="evenodd" clip-rule="evenodd" d="M465.794 48.9176C466.105 49.4233 466.636 49.745 467.222 49.7812L474.476 49.7616C474.939 49.7616 475.209 49.3887 474.939 48.9176L467.851 36.7882L467.848 36.79L467.463 36.1283C467.43 36.0869 467.404 36.0416 467.385 35.9939L463.357 29.0755C463.069 29.1355 462.774 29.1681 462.476 29.1715H455.144V36.2771H457.961C458.546 36.3133 459.078 36.635 459.389 37.1408L465.794 48.9176ZM465.188 28.245C465.443 28.053 465.68 27.8333 465.895 27.5882C466.762 26.598 467.181 25.2831 467.049 23.9641C467.116 22.6813 466.67 21.425 465.814 20.4801C464.952 19.529 463.747 18.975 462.476 18.9452H454.083C453.551 18.9452 453.119 19.3846 453.119 19.9266V28.1901C453.119 28.2147 453.12 28.239 453.121 28.2632L453.142 37.174C453.139 37.2018 453.138 37.23 453.138 37.2585V48.7998C453.138 49.3419 452.706 49.7812 452.173 49.7812H446.154C445.621 49.7812 445.189 49.3419 445.189 48.7998V12.7627C445.189 12.2206 445.621 11.7812 446.154 11.7812H463.614C463.614 11.7812 475.189 11.7812 475.189 24.0292C475.189 32.0019 471.16 34.316 469.107 34.9776L465.188 28.245Z" fill="white"/>
<path fill-rule="evenodd" clip-rule="evenodd" d="M514.439 49.7772C513.85 49.7477 513.328 49.3762 513.097 48.8206L511.75 45.1066L511.751 45.1064L508.677 35.4495C508.668 35.3835 508.649 35.3184 508.62 35.2565L508.576 35.1309L508.535 35.0034L508.531 35.0047L503.498 20.8172C503.309 20.2881 503.01 20.2881 502.821 20.8172L497.709 35.2565C497.607 35.475 497.629 35.7325 497.764 35.9305C497.9 36.1285 498.13 36.2364 498.365 36.213H506.821L509.089 43.336H496.187C495.597 43.3655 495.076 43.7369 494.844 44.2925L493.203 48.8206C492.971 49.3762 492.45 49.7477 491.86 49.7772H484.897C484.664 49.804 484.435 49.6972 484.302 49.4992C484.168 49.3012 484.153 49.0443 484.261 48.8308L497.858 12.7276C498.098 12.176 498.621 11.8099 499.211 11.7812H507.168C507.758 11.8099 508.281 12.176 508.521 12.7276L522.118 48.8308C522.226 49.0443 522.21 49.3012 522.077 49.4992C521.944 49.6972 521.715 49.804 521.482 49.7772H514.439Z" fill="white"/>
</svg>
