<svg width="366" height="56" class="svg-logo" viewBox="0 0 366 56" fill="none" xmlns="http://www.w3.org/2000/svg">
<path d="M95.7837 13.0797C95.8864 13.3808 96.179 13.5845 96.509 13.5845C96.8391 13.5845 97.1317 13.3808 97.2344 13.0797L103.864 2.05576C104.261 1.39019 103.94 0.847656 103.142 0.847656H89.8761C89.078 0.847656 88.7517 1.40696 89.1537 2.05576L95.7837 13.0797Z" fill="white"/>
<path d="M84.1029 34.4934C84.2109 34.8003 84.5007 35.0056 84.8259 35.0056C85.151 35.0056 85.4408 34.8003 85.5488 34.4934L92.1571 23.0399C92.5545 22.2524 92.5545 21.3228 92.1571 20.5353L81.5188 2.10283C81.037 1.36395 80.2331 0.898066 79.3529 0.847656H66.1364C65.3408 0.847656 65.0156 1.42876 65.4163 2.10283L84.1029 34.4934Z" fill="white"/>
<path d="M56.9803 2.08774C56.5047 1.35774 55.711 0.89746 54.842 0.847656H41.8111C41.0257 0.847656 40.7047 1.42177 41.0945 2.08774L71.4788 54.7627C71.5855 55.0659 71.8715 55.2687 72.1925 55.2687C72.5136 55.2687 72.7996 55.0659 72.9063 54.7627L79.4246 43.4584C79.8161 42.6802 79.8161 41.7622 79.4246 40.984L56.9803 2.08774Z" fill="white"/>
<path d="M48.6263 54.0644C48.2242 54.7309 48.5564 55.2686 49.349 55.2686H62.6128C63.4112 55.2686 63.7375 54.7085 63.3354 54.0644L56.7093 43.0254C56.6009 42.7296 56.3101 42.5317 55.9838 42.5317C55.6575 42.5317 55.3667 42.7296 55.2582 43.0254L48.6263 54.0644Z" fill="#F2F0E9"/>
<path d="M24.8889 54.5985C24.4882 55.29 24.8192 55.8478 25.609 55.8478H38.8264C39.7056 55.7987 40.5093 55.3351 40.9925 54.5985L51.6314 36.166C52.0279 35.3783 52.0279 34.4491 51.6314 33.6614L45.0227 22.2021C44.9147 21.8952 44.6249 21.6899 44.2997 21.6899C43.9745 21.6899 43.6847 21.8952 43.5767 22.2021L24.8889 54.5985Z" fill="#F2F0E9"/>
<path d="M39.4778 15.7219C39.8686 14.9436 39.8686 14.0262 39.4778 13.2478L32.979 1.94482C32.8779 1.63577 32.5898 1.42676 32.2648 1.42676C31.9399 1.42676 31.6518 1.63577 31.5507 1.94482L1.15001 54.6136C0.754224 55.2967 1.08117 55.8478 1.86127 55.8478H14.8992C15.7676 55.7993 16.5615 55.3413 17.0387 54.6136L39.4778 15.7219Z" fill="#F2F0E9"/>
<path d="M349.244 44.2759C349.244 40.4516 352.241 38.0065 355.918 38.0065C357.699 37.9533 359.402 38.7126 360.517 40.0566C360.566 40.1254 360.585 40.2106 360.57 40.2931C360.554 40.3756 360.504 40.4485 360.433 40.4955L358.934 41.5049C358.777 41.6023 358.571 41.5842 358.435 41.461C357.756 40.8149 356.872 40.4085 355.925 40.3074C353.657 40.3074 351.819 42.0842 351.819 44.2759C351.819 46.4677 353.657 48.2445 355.925 48.2445C356.889 48.2423 357.822 47.9165 358.565 47.3229V46.1881C358.565 46.015 358.419 45.8746 358.24 45.8746H355.587C355.408 45.8746 355.263 45.7343 355.263 45.5612V43.9436C355.263 43.7705 355.408 43.6302 355.587 43.6302H360.88C361.059 43.6302 361.204 43.7705 361.204 43.9436V47.9561C361.195 48.1561 361.122 48.3486 360.997 48.5078C359.659 49.8299 357.818 50.5622 355.905 50.5328C352.241 50.5265 349.244 48.0815 349.244 44.2759Z" fill="white"/>
<path d="M279.157 38.2722C279.243 38.1224 279.157 38.0039 279.004 38.0039H268.561C268.389 38.0039 268.321 38.1287 268.407 38.2722L269.378 39.9754C269.484 40.1311 269.653 40.2298 269.839 40.2437H272.228C272.398 40.2437 272.535 40.3834 272.535 40.5557V49.6522C272.535 49.8244 272.673 49.9641 272.842 49.9641H274.753C274.922 49.9641 275.06 49.8244 275.06 49.6522V40.5557C275.06 40.3834 275.197 40.2437 275.367 40.2437H277.757C277.942 40.2298 278.112 40.1311 278.217 39.9754L279.157 38.2722Z" fill="white"/>
<path d="M133.958 49.9641C133.786 49.9641 133.646 49.8258 133.646 49.6552V41.6241C133.646 41.4511 133.596 41.4449 133.534 41.6241L130.354 49.6552C130.279 49.8234 130.115 49.9356 129.929 49.9456H129.43C129.244 49.9356 129.08 49.8234 129.005 49.6552L125.825 41.6241C125.763 41.4635 125.713 41.4758 125.713 41.6241V49.6552C125.713 49.8258 125.573 49.9641 125.4 49.9641H123.451C123.279 49.9641 123.139 49.8258 123.139 49.6552V38.3128C123.139 38.1422 123.279 38.0039 123.451 38.0039H126.431C126.617 38.0139 126.781 38.1261 126.856 38.2943L129.567 45.1887C129.629 45.3493 129.729 45.3493 129.792 45.1887L132.503 38.2943C132.578 38.1261 132.742 38.0139 132.928 38.0039H135.926C136.099 38.0039 136.238 38.1422 136.238 38.3128V49.649C136.238 49.8196 136.099 49.9579 135.926 49.9579L133.958 49.9641Z" fill="white"/>
<path fill-rule="evenodd" clip-rule="evenodd" d="M163.581 49.626C163.653 49.7917 163.816 49.9029 164.001 49.9121H166.312C166.386 49.9209 166.459 49.8886 166.502 49.8284C166.544 49.7682 166.548 49.6901 166.512 49.626L162.065 38.4204C161.99 38.2547 161.826 38.1441 161.64 38.1343H159.034C158.848 38.1441 158.683 38.2547 158.608 38.4204L154.161 49.626C154.126 49.6901 154.13 49.7682 154.172 49.8284C154.214 49.8886 154.287 49.9209 154.362 49.9121H156.66C156.845 49.9029 157.008 49.7917 157.08 49.626L157.625 48.2017C157.697 48.036 157.86 47.9249 158.045 47.9157H162.617C162.801 47.9249 162.964 48.036 163.036 48.2017L163.581 49.626ZM160.218 40.9277C160.274 40.7694 160.374 40.7694 160.431 40.9277L162.084 45.4197C162.116 45.485 162.109 45.562 162.067 45.6213C162.024 45.6805 161.952 45.7128 161.877 45.7058H158.746C158.672 45.7128 158.6 45.6805 158.557 45.6213C158.514 45.562 158.507 45.485 158.539 45.4197L160.218 40.9277Z" fill="white"/>
<path fill-rule="evenodd" clip-rule="evenodd" d="M191.522 49.6458C191.619 49.8026 191.783 49.9023 191.965 49.9135L194.213 49.9074C194.357 49.9074 194.441 49.7918 194.357 49.6458L192.043 45.6849C191.998 45.6321 191.99 45.5573 192.022 45.4958C192.053 45.4344 192.118 45.3985 192.186 45.405C192.186 45.405 194.435 45.2469 194.435 41.9309C194.435 38.1343 190.846 38.1343 190.846 38.1343H185.434C185.269 38.1343 185.135 38.2705 185.135 38.4385V49.6093C185.135 49.7773 185.269 49.9135 185.434 49.9135H187.3C187.465 49.9135 187.599 49.7773 187.599 49.6093V46.0317C187.599 45.8637 187.733 45.7275 187.898 45.7275H189.094C189.276 45.7387 189.44 45.8385 189.537 45.9952L191.522 49.6458ZM191.911 41.9105C191.932 41.5129 191.794 41.1235 191.528 40.8306C191.261 40.5357 190.888 40.364 190.493 40.3548H187.892C187.727 40.3548 187.593 40.491 187.593 40.659V43.2205C187.593 43.3885 187.727 43.5247 187.892 43.5247H190.493C190.899 43.5201 191.284 43.3419 191.553 43.0339C191.822 42.727 191.952 42.3194 191.911 41.9105Z" fill="white"/>
<path d="M220.772 49.9641C220.589 49.9532 220.418 49.8638 220.3 49.717L217.192 45.3925C217.15 45.3305 217.082 45.2936 217.009 45.2936C216.936 45.2936 216.868 45.3305 216.826 45.3925L216.312 46.0474C216.198 46.2069 216.132 46.3984 216.123 46.5972V49.6552C216.123 49.8258 215.991 49.9641 215.828 49.9641H213.99C213.827 49.9641 213.695 49.8258 213.695 49.6552V38.3128C213.695 38.1422 213.827 38.0039 213.99 38.0039H215.833C215.997 38.0039 216.129 38.1422 216.129 38.3128V43.0203C216.129 43.1932 216.212 43.218 216.312 43.0882L219.987 38.251C220.109 38.1078 220.281 38.0212 220.465 38.0101H222.875C223.035 38.0101 223.082 38.1151 222.982 38.2448L218.846 43.3786C218.743 43.5187 218.743 43.7142 218.846 43.8543L223.324 49.717C223.425 49.8467 223.378 49.9579 223.212 49.9579L220.772 49.9641Z" fill="white"/>
<path d="M297.693 49.9641C297.54 49.9641 297.417 49.8258 297.417 49.6552V38.3128C297.417 38.1422 297.54 38.0039 297.693 38.0039H299.418C299.571 38.0039 299.695 38.1422 299.695 38.3128V49.649C299.695 49.8196 299.571 49.9579 299.418 49.9579L297.693 49.9641Z" fill="white"/>
<path d="M328.732 49.9579C328.527 49.9485 328.337 49.8589 328.206 49.7109L322.534 42.4187C322.428 42.2829 322.336 42.3076 322.336 42.4805V49.6554C322.336 49.8259 322.189 49.9641 322.008 49.9641H319.957C319.776 49.9641 319.628 49.8259 319.628 49.6554V38.3126C319.628 38.1421 319.776 38.0039 319.957 38.0039H322.087C322.291 38.0141 322.481 38.1035 322.612 38.2509L328.114 45.2591C328.219 45.3949 328.311 45.3702 328.311 45.1973V38.3126C328.311 38.1421 328.458 38.0039 328.64 38.0039H330.69C330.872 38.0039 331.019 38.1421 331.019 38.3126V49.643C331.019 49.8135 330.872 49.9518 330.69 49.9518L328.732 49.9579Z" fill="white"/>
<path d="M250.354 47.9924C250.436 47.8378 250.354 47.7142 250.201 47.7142H244.897C244.729 47.7142 244.592 47.5703 244.592 47.3928V45.3098C244.592 45.1323 244.729 44.9884 244.897 44.9884H246.69C246.876 44.9774 247.046 44.8742 247.148 44.7103L248.074 43.0229C248.156 42.8683 248.074 42.7447 247.921 42.7447H244.903C244.734 42.7447 244.598 42.6008 244.598 42.4233V40.569C244.598 40.3915 244.734 40.2476 244.903 40.2476H249.299C249.484 40.2366 249.654 40.1334 249.756 39.9695L250.682 38.2821C250.764 38.1275 250.682 38.0039 250.53 38.0039H242.476C242.308 38.0039 242.171 38.1478 242.171 38.3253V49.6427C242.171 49.7279 242.203 49.8097 242.261 49.87C242.318 49.9302 242.395 49.9641 242.476 49.9641H248.97C249.156 49.9531 249.326 49.8499 249.428 49.686L250.354 47.9924Z" fill="white"/>
<path fill-rule="evenodd" clip-rule="evenodd" d="M143.981 27.5904C143.981 27.9055 144.238 28.1611 144.547 28.1611H148.66L148.66 23.5303C148.658 23.5101 148.656 23.4896 148.656 23.4689V6.73182C148.656 6.41794 148.403 6.16113 148.091 6.16113H144.547C144.238 6.16113 143.981 6.41794 143.981 6.73182V27.5904ZM149.818 24.0396V28.1611H157.311C157.622 28.1611 157.876 27.9055 157.876 27.5904V24.6103C157.876 24.2964 157.622 24.0396 157.311 24.0396H149.818Z" fill="white"/>
<path fill-rule="evenodd" clip-rule="evenodd" d="M172.334 6.16113C165.99 6.16113 161.35 10.7524 161.35 17.1611C161.35 23.3786 165.717 27.8855 171.771 28.1489V24.122C168.212 23.8432 165.958 20.9201 165.958 17.1611C165.958 13.1756 168.452 10.1785 172.334 10.1785C176.217 10.1785 178.742 13.1756 178.742 17.1611C178.742 20.9091 176.473 23.8261 172.929 24.1195V28.1477C178.997 27.8714 183.35 23.3689 183.35 17.1611C183.35 10.7524 178.71 6.16113 172.334 6.16113Z" fill="white"/>
<path fill-rule="evenodd" clip-rule="evenodd" d="M127.743 19.7553V23.4548C127.743 25.0697 127.752 25.7133 127.76 26.2587C127.766 26.6596 127.771 27.0073 127.771 27.6487C127.735 27.7045 127.705 27.7566 127.677 27.8045C127.555 28.015 127.48 28.1444 127.192 28.1611H123.718C123.398 28.1611 123.139 27.8974 123.139 27.5721V11.449H127.72V14.3132C127.72 14.3702 127.728 14.4254 127.743 14.4775L127.743 19.7553H127.743ZM128.901 14.9022H134.641C134.93 14.9022 135.092 15.1319 134.93 15.4147L133.193 18.5188C133 18.8205 132.677 19.0108 132.324 19.0313H128.901L128.901 14.9022ZM128.299 10.2902C128.288 10.2902 128.277 10.2905 128.266 10.2912H123.139V6.75016C123.139 6.42485 123.398 6.16113 123.718 6.16113H139.575C139.864 6.16113 140.026 6.39085 139.864 6.67358L138.127 9.77773C137.934 10.0794 137.611 10.2697 137.258 10.2902H128.299Z" fill="white"/>
<path fill-rule="evenodd" clip-rule="evenodd" d="M198.386 6.16113C192.042 6.16113 187.402 10.7524 187.402 17.1611C187.402 23.3788 191.769 27.8858 197.823 28.149V24.122C194.264 23.8435 192.01 20.9202 192.01 17.1611C192.01 13.1756 194.504 10.1785 198.386 10.1785C202.268 10.1785 204.794 13.1756 204.794 17.1611C204.794 20.909 202.524 23.8259 198.981 24.1194V28.1477C205.049 27.8712 209.402 23.3687 209.402 17.1611C209.402 10.7524 204.762 6.16113 198.386 6.16113Z" fill="white"/>
<path fill-rule="evenodd" clip-rule="evenodd" d="M270.416 6.16113C270.731 6.16113 270.862 6.39079 270.702 6.67345L268.933 9.77676C268.742 10.0783 268.423 10.2686 268.074 10.2891H263.768C263.757 10.2891 263.745 10.2894 263.733 10.2902L258.078 10.2902C258.066 10.2894 258.055 10.2891 258.043 10.2891H253.731C253.382 10.2686 253.063 10.0783 252.873 9.77676L251.155 6.67345C250.995 6.39079 251.126 6.16113 251.441 6.16113H270.416ZM258.615 11.4481V27.5723C258.615 27.8975 258.872 28.1611 259.188 28.1611H262.623C262.94 28.1611 263.196 27.8975 263.196 27.5723V11.4481L258.615 11.4481Z" fill="white"/>
<path fill-rule="evenodd" clip-rule="evenodd" d="M332.807 10.3128C337.325 10.3128 339.716 13.3375 339.716 17.2244C339.716 21.0124 337.158 24.1693 332.773 24.1693H329.911L329.911 28.3203H332.232C332.548 28.3203 333.065 28.318 333.381 28.3157C333.381 28.3157 344.534 28.2111 344.534 17.2241C344.534 6.16113 333.348 6.16113 333.348 6.16113H332.198H324.609C324.295 6.16113 324.034 6.4198 324.034 6.73595V27.7455C324.034 28.0628 324.295 28.3203 324.609 28.3203H328.753L328.753 23.6325C328.752 23.6199 328.752 23.6072 328.752 23.5945V10.8876C328.752 10.5737 329.012 10.3128 329.327 10.3128H332.807Z" fill="white"/>
<path fill-rule="evenodd" clip-rule="evenodd" d="M364.165 24.0226C364.454 24.0226 364.61 24.25 364.454 24.5343L362.697 27.6495C362.504 27.951 362.182 28.1409 361.83 28.1611H354.699V24.0226H364.165ZM353.541 23.5824L353.541 28.1611H349.507C349.353 28.1611 349.206 28.0988 349.098 27.988C348.989 27.8771 348.928 27.7267 348.928 27.5699V6.75235C348.928 6.42583 349.187 6.16113 349.507 6.16113H364.788C365.077 6.16113 365.233 6.38852 365.077 6.67276L363.32 9.77664C363.127 10.0782 362.805 10.268 362.452 10.2883H354.111C353.792 10.2883 353.533 10.553 353.533 10.8795V14.2903C353.533 14.3237 353.535 14.3565 353.541 14.3884L353.541 19.4489C353.528 19.4971 353.522 19.5477 353.522 19.5999V23.4314C353.522 23.4836 353.528 23.5342 353.541 23.5824ZM354.699 19.0087H357.503C357.855 18.9884 358.177 18.7986 358.371 18.4971L360.128 15.3932C360.284 15.1089 360.128 14.8815 359.839 14.8815H354.699V19.0087Z" fill="white"/>
<path fill-rule="evenodd" clip-rule="evenodd" d="M225.384 27.6611C225.563 27.9539 225.871 28.1402 226.21 28.1611L230.41 28.1498C230.678 28.1498 230.834 27.9339 230.678 27.6611L226.575 20.6396L226.573 20.6407L226.35 20.2566C226.331 20.2327 226.316 20.2066 226.305 20.1792L223.973 16.1745C223.806 16.2092 223.636 16.2281 223.463 16.2301H219.218L219.218 20.343H220.849C221.187 20.3639 221.495 20.5502 221.675 20.843L225.384 27.6611ZM225.033 15.6936C225.181 15.5824 225.318 15.4553 225.442 15.3134C225.944 14.7402 226.187 13.9789 226.111 13.2153C226.149 12.4726 225.891 11.7453 225.395 11.1983C224.896 10.6476 224.199 10.3269 223.463 10.3096H218.604C218.296 10.3096 218.046 10.564 218.046 10.8778V15.6619C218.046 15.6768 218.046 15.6916 218.047 15.7063L218.059 20.8568C218.057 20.8747 218.056 20.8928 218.056 20.9111V27.593C218.056 27.9067 217.806 28.1611 217.498 28.1611H214.013C213.705 28.1611 213.455 27.9067 213.455 27.593V6.72931C213.455 6.41552 213.705 6.16113 214.013 6.16113H224.121C224.121 6.16113 230.823 6.16113 230.823 13.252C230.823 17.8679 228.49 19.2076 227.302 19.5906L225.033 15.6936Z" fill="white"/>
<path fill-rule="evenodd" clip-rule="evenodd" d="M286.753 27.6611C286.933 27.9539 287.24 28.1402 287.579 28.1611L291.779 28.1498C292.047 28.1498 292.203 27.9339 292.047 27.6611L287.944 20.6395L287.942 20.6407L287.718 20.2549C287.7 20.2321 287.685 20.2073 287.675 20.1813L285.342 16.1745C285.175 16.2092 285.004 16.2281 284.831 16.2301H280.587L280.587 20.343H282.218C282.557 20.3639 282.865 20.5502 283.044 20.843L286.753 27.6611ZM286.402 15.6936C286.55 15.5824 286.687 15.4553 286.811 15.3134C287.313 14.7402 287.556 13.9789 287.479 13.2153C287.518 12.4726 287.26 11.7453 286.764 11.1983C286.265 10.6476 285.568 10.3269 284.831 10.3096H279.973C279.664 10.3096 279.414 10.564 279.414 10.8778V15.6619C279.414 15.6768 279.415 15.6916 279.416 15.7063L279.428 20.8606C279.426 20.8773 279.426 20.8941 279.426 20.9111V27.593C279.426 27.9067 279.175 28.1611 278.867 28.1611H275.382C275.074 28.1611 274.824 27.9067 274.824 27.593V6.72931C274.824 6.41552 275.074 6.16113 275.382 6.16113H285.491C285.491 6.16113 292.192 6.16113 292.192 13.252C292.192 17.8682 289.859 19.2078 288.671 19.5907L286.402 15.6936Z" fill="white"/>
<path fill-rule="evenodd" clip-rule="evenodd" d="M314.915 28.1588C314.574 28.1417 314.272 27.9266 314.138 27.605L313.359 25.4551L313.359 25.455L311.58 19.8653C311.575 19.8267 311.564 19.7887 311.547 19.7524L311.519 19.6741L311.497 19.6059L311.495 19.6066L308.581 11.3929C308.472 11.0865 308.299 11.0865 308.19 11.3929L305.23 19.7524C305.171 19.879 305.183 20.028 305.262 20.1426C305.341 20.2573 305.473 20.3198 305.61 20.3062H310.505L311.818 24.4297H304.348C304.007 24.4467 303.705 24.6618 303.571 24.9834L302.621 27.605C302.486 27.9266 302.185 28.1417 301.843 28.1588H297.812C297.677 28.1743 297.544 28.1125 297.467 27.9978C297.39 27.8832 297.381 27.7345 297.444 27.6109L305.316 6.70901C305.455 6.38967 305.758 6.1777 306.099 6.16113H310.706C311.047 6.1777 311.35 6.38967 311.489 6.70901L319.361 27.6109C319.424 27.7345 319.414 27.8832 319.337 27.9978C319.26 28.1125 319.128 28.1743 318.993 28.1588H314.915Z" fill="white"/>
</svg>
