<svg width="122" height="122" viewBox="0 0 122 122" fill="none" xmlns="http://www.w3.org/2000/svg">
<g clip-path="url(#clip0_837_3)">
<path d="M112.219 14.502C112.341 14.8589 112.687 15.1004 113.079 15.1004C113.47 15.1004 113.817 14.8589 113.939 14.502L121.799 1.43229C122.269 0.643205 121.889 0 120.943 0H105.215C104.269 0 103.882 0.663098 104.359 1.43229L112.219 14.502Z" fill="#FF5C42"/>
<path d="M98.3705 39.8893C98.4985 40.2531 98.8421 40.4965 99.2276 40.4965C99.6131 40.4965 99.9566 40.2531 100.085 39.8893L107.919 26.3104C108.39 25.3768 108.39 24.2747 107.919 23.3411L95.3069 1.4881C94.7356 0.612098 93.7825 0.0597637 92.739 0H77.0699C76.1267 0 75.7412 0.688934 76.2162 1.4881L98.3705 39.8893Z" fill="#FF5C42"/>
<path d="M66.2149 1.47021C65.6509 0.604738 64.71 0.0590452 63.6797 0H48.2307C47.2996 0 46.919 0.680651 47.3812 1.47021L83.4038 63.9199C83.5302 64.2794 83.8694 64.5198 84.25 64.5198C84.6305 64.5198 84.9697 64.2794 85.0962 63.9199L92.824 50.5179C93.2881 49.5953 93.2881 48.5069 92.824 47.5843L66.2149 1.47021Z" fill="#FF5C42"/>
<path d="M56.3105 63.092C55.8337 63.8821 56.2275 64.5196 57.1672 64.5196H72.8923C73.8389 64.5196 74.2258 63.8556 73.7491 63.092L65.8934 50.0044C65.7649 49.6538 65.4201 49.4192 65.0332 49.4192C64.6463 49.4192 64.3016 49.6538 64.173 50.0044L56.3105 63.092Z" fill="#370617"/>
<path d="M28.1681 63.7255C27.6931 64.5453 28.0855 65.2067 29.0219 65.2067H44.6919C45.7343 65.1485 46.6872 64.5989 47.26 63.7255L59.8731 41.8725C60.3433 40.9386 60.3433 39.8371 59.8731 38.9032L52.0381 25.3174C51.91 24.9536 51.5665 24.7102 51.1809 24.7102C50.7954 24.7102 50.4519 24.9536 50.3238 25.3174L28.1681 63.7255Z" fill="#370617"/>
<path d="M45.4643 17.6342C45.9276 16.7114 45.9276 15.6237 45.4643 14.7009L37.7595 1.30048C37.6396 0.934081 37.298 0.686279 36.9128 0.686279C36.5276 0.686279 36.186 0.934081 36.0662 1.30048L0.0240592 63.7429C-0.445168 64.5528 -0.0575456 65.2061 0.867308 65.2061H16.3246C17.3542 65.1486 18.2954 64.6057 18.8612 63.7429L45.4643 17.6342Z" fill="#370617"/>
<path fill-rule="evenodd" clip-rule="evenodd" d="M72.7519 77.6868C73.3862 77.6868 73.6515 78.1494 73.3286 78.7187L69.7649 84.9695C69.3808 85.5769 68.7384 85.9601 68.035 86.0014H59.3624C59.343 86.0014 59.3236 86.0019 59.3044 86.0029L47.8876 86.0029C47.8684 86.0019 47.8491 86.0014 47.8296 86.0014H39.1455C38.4421 85.9601 37.7997 85.5769 37.4156 84.9695L33.9557 78.7187C33.6328 78.1494 33.8981 77.6868 34.5324 77.6868H72.7519ZM48.9829 88.3351V120.814C48.9829 121.469 49.4993 122 50.1362 122H57.0558C57.6928 122 58.2091 121.469 58.2091 120.814V88.3351L48.9829 88.3351Z" fill="#450A0A"/>
<path fill-rule="evenodd" clip-rule="evenodd" d="M9.27374 105.067V112.52C9.27374 115.773 9.29225 117.069 9.30793 118.168C9.31945 118.975 9.32945 119.676 9.32945 120.968C9.25749 121.08 9.19658 121.185 9.14057 121.281C8.89415 121.706 8.74267 121.966 8.16294 122H1.16651C0.522264 122 0 121.469 0 120.813V88.3363H9.22708V94.1069C9.22708 94.2221 9.2432 94.3334 9.27328 94.4386V105.067H9.27374ZM11.6055 95.2934H23.1665C23.7497 95.2934 24.0764 95.7561 23.7497 96.3256L20.2502 102.578C19.8616 103.186 19.212 103.569 18.5005 103.61H11.6055L11.6055 95.2934ZM10.3936 86.0036C10.3836 86.0036 10.3736 86.0038 10.3636 86.004H0V78.8732C0 78.2179 0.522264 77.6868 1.16651 77.6868H33.1051C33.6884 77.6868 34.015 78.1495 33.6884 78.719L30.1889 84.9714C29.8003 85.579 29.1506 85.9623 28.4391 86.0036H10.3936Z" fill="#450A0A"/>
<path fill-rule="evenodd" clip-rule="evenodd" d="M117.182 77.6868H109.733C109.046 77.7237 108.437 78.1395 108.159 78.7626L98.9398 102.209L103.225 113.208L111.61 92.0305L117.182 77.6868ZM112.395 96.4505V120.855C112.395 121.488 112.913 122 113.552 122L120.843 121.977C121.482 121.977 122 121.465 122 120.833V78.8312C122 78.1992 121.482 77.6868 120.843 77.6868H119.684L112.395 96.4505ZM74.6235 77.6868H75.6508L83.0017 96.5537V120.855C83.0017 121.488 82.4836 122 81.8445 122H74.6235C73.9844 122 73.4663 121.488 73.4663 120.855V78.8312C73.4663 78.1992 73.9844 77.6868 74.6235 77.6868ZM83.4183 91.0997C83.3573 90.9429 83.2995 90.8306 83.2475 90.7602L78.1538 77.6868H85.6633C86.3509 77.7237 86.9592 78.1395 87.2371 78.7626L94.2667 96.6394L101.964 116.395L100.198 120.855C99.92 121.479 99.3117 121.894 98.6241 121.931H96.7725C96.0849 121.894 95.4766 121.479 95.1987 120.855L83.4183 91.0997Z" fill="#450A0A"/>
</g>
<defs>
<clipPath id="clip0_837_3">
<rect width="122" height="122" fill="white"/>
</clipPath>
</defs>
</svg>
