<svg width="122" height="122" viewBox="0 0 122 122" fill="none" xmlns="http://www.w3.org/2000/svg">
<g clip-path="url(#clip0_837_3)">
<path d="M112.219 14.502C112.341 14.8589 112.687 15.1004 113.079 15.1004C113.47 15.1004 113.817 14.8589 113.939 14.502L121.799 1.43229C122.269 0.643205 121.889 0 120.943 0H105.215C104.269 0 103.882 0.663098 104.359 1.43229L112.219 14.502Z" fill="#FF5C42"/>
<path d="M98.3705 39.8893C98.4985 40.2531 98.8421 40.4965 99.2276 40.4965C99.6131 40.4965 99.9566 40.2531 100.085 39.8893L107.919 26.3104C108.39 25.3768 108.39 24.2747 107.919 23.3411L95.3069 1.4881C94.7356 0.612098 93.7825 0.0597637 92.739 0H77.0699C76.1267 0 75.7412 0.688934 76.2162 1.4881L98.3705 39.8893Z" fill="#FF5C42"/>
<path d="M66.2149 1.47021C65.6509 0.604738 64.71 0.0590452 63.6797 0H48.2307C47.2996 0 46.919 0.680651 47.3812 1.47021L83.4038 63.9199C83.5302 64.2794 83.8694 64.5198 84.25 64.5198C84.6305 64.5198 84.9697 64.2794 85.0962 63.9199L92.824 50.5179C93.2881 49.5953 93.2881 48.5069 92.824 47.5843L66.2149 1.47021Z" fill="#FF5C42"/>
<path d="M56.3105 63.092C55.8337 63.8821 56.2275 64.5196 57.1672 64.5196H72.8923C73.8389 64.5196 74.2258 63.8556 73.7491 63.092L65.8934 50.0044C65.7649 49.6538 65.4201 49.4192 65.0332 49.4192C64.6463 49.4192 64.3016 49.6538 64.173 50.0044L56.3105 63.092Z" fill="#370617"/>
<path d="M28.1681 63.7255C27.6931 64.5453 28.0855 65.2067 29.0219 65.2067H44.6919C45.7343 65.1485 46.6872 64.5989 47.26 63.7255L59.8731 41.8725C60.3433 40.9386 60.3433 39.8371 59.8731 38.9032L52.0381 25.3174C51.91 24.9536 51.5665 24.7102 51.1809 24.7102C50.7954 24.7102 50.4519 24.9536 50.3238 25.3174L28.1681 63.7255Z" fill="#370617"/>
<path d="M45.4643 17.6342C45.9276 16.7114 45.9276 15.6237 45.4643 14.7009L37.7595 1.30048C37.6396 0.934081 37.298 0.686279 36.9128 0.686279C36.5276 0.686279 36.186 0.934081 36.0662 1.30048L0.0240592 63.7429C-0.445168 64.5528 -0.0575456 65.2061 0.867308 65.2061H16.3246C17.3542 65.1486 18.2954 64.6057 18.8612 63.7429L45.4643 17.6342Z" fill="#370617"/>
</g>
<defs>
<clipPath id="clip0_837_3">
<rect width="122" height="122" fill="white"/>
</clipPath>
</defs>
</svg>
